{
    "asset" : {
        "generator" : "Khronos glTF Blender I/O v1.6.16",
        "version" : "2.0"
    },
    "scene" : 0,
    "scenes" : [
        {
            "name" : "Scene",
            "nodes" : [
                0,
                1,
                2,
                3
            ]
        }
    ],
    "nodes" : [
        {
            "mesh" : 0,
            "name" : "Human",
            "translation" : [
                0.005810307338833809,
                2.798795700073242,
                -0.2737906575202942
            ]
        },
        {
            "name" : "Light",
            "rotation" : [
                0.16907575726509094,
                0.7558803558349609,
                -0.27217137813568115,
                0.570947527885437
            ],
            "translation" : [
                4.448688507080078,
                7.517783164978027,
                -1.0054537057876587
            ]
        },
        {
            "name" : "Camera",
            "rotation" : [
                0.483536034822464,
                0.33687159419059753,
                -0.20870360732078552,
                0.7804827094078064
            ],
            "translation" : [
                7.358891487121582,
                4.958309173583984,
                6.925790786743164
            ]
        },
        {
            "mesh" : 1,
            "name" : "Plane",
            "rotation" : [
                0.7071068286895752,
                0,
                0,
                0.7071068286895752
            ],
            "scale" : [
                0.512698769569397,
                0.046420808881521225,
                -0.8726983666419983
            ],
            "translation" : [
                -0.013204261660575867,
                3.50372314453125,
                0.32969459891319275
            ]
        }
    ],
    "materials" : [
        {
            "doubleSided" : true,
            "name" : "Material",
            "pbrMetallicRoughness" : {
                "baseColorFactor" : [
                    0.800000011920929,
                    0.800000011920929,
                    0.800000011920929,
                    1
                ],
                "metallicFactor" : 0,
                "roughnessFactor" : 0.4000000059604645
            }
        },
        {
            "doubleSided" : true,
            "name" : "Material.001",
            "pbrMetallicRoughness" : {
                "baseColorFactor" : [
                    0.800000011920929,
                    0.800000011920929,
                    0.800000011920929,
                    1
                ],
                "metallicFactor" : 0,
                "roughnessFactor" : 0.5
            }
        }
    ],
    "meshes" : [
        {
            "name" : "Cube",
            "primitives" : [
                {
                    "attributes" : {
                        "POSITION" : 0,
                        "NORMAL" : 1,
                        "TEXCOORD_0" : 2
                    },
                    "indices" : 3,
                    "material" : 0
                }
            ]
        },
        {
            "name" : "Plane",
            "primitives" : [
                {
                    "attributes" : {
                        "POSITION" : 4,
                        "NORMAL" : 5,
                        "TEXCOORD_0" : 6
                    },
                    "indices" : 7,
                    "material" : 1
                }
            ]
        }
    ],
    "accessors" : [
        {
            "bufferView" : 0,
            "componentType" : 5126,
            "count" : 93,
            "max" : [
                0,
                2.4939162731170654,
                0.6780485510826111
            ],
            "min" : [
                -1.0476791858673096,
                -3.000938892364502,
                -0.42975232005119324
            ],
            "type" : "VEC3"
        },
        {
            "bufferView" : 1,
            "componentType" : 5126,
            "count" : 93,
            "type" : "VEC3"
        },
        {
            "bufferView" : 2,
            "componentType" : 5126,
            "count" : 93,
            "type" : "VEC2"
        },
        {
            "bufferView" : 3,
            "componentType" : 5123,
            "count" : 294,
            "type" : "SCALAR"
        },
        {
            "bufferView" : 4,
            "componentType" : 5126,
            "count" : 369,
            "max" : [
                1.6340866088867188,
                2.1311659812927246,
                1.246741533279419
            ],
            "min" : [
                0,
                -24.287166595458984,
                -1.6449882984161377
            ],
            "type" : "VEC3"
        },
        {
            "bufferView" : 5,
            "componentType" : 5126,
            "count" : 369,
            "type" : "VEC3"
        },
        {
            "bufferView" : 6,
            "componentType" : 5126,
            "count" : 369,
            "type" : "VEC2"
        },
        {
            "bufferView" : 7,
            "componentType" : 5123,
            "count" : 1842,
            "type" : "SCALAR"
        }
    ],
    "bufferViews" : [
        {
            "buffer" : 0,
            "byteLength" : 1116,
            "byteOffset" : 0
        },
        {
            "buffer" : 0,
            "byteLength" : 1116,
            "byteOffset" : 1116
        },
        {
            "buffer" : 0,
            "byteLength" : 744,
            "byteOffset" : 2232
        },
        {
            "buffer" : 0,
            "byteLength" : 588,
            "byteOffset" : 2976
        },
        {
            "buffer" : 0,
            "byteLength" : 4428,
            "byteOffset" : 3564
        },
        {
            "buffer" : 0,
            "byteLength" : 4428,
            "byteOffset" : 7992
        },
        {
            "buffer" : 0,
            "byteLength" : 2952,
            "byteOffset" : 12420
        },
        {
            "buffer" : 0,
            "byteLength" : 3684,
            "byteOffset" : 15372
        }
    ],
    "buffers" : [
        {
            "byteLength" : 19056,
            "uri" : "data:application/octet-stream;base64,"
        }
    ]
}
